<svg xmlns="http://www.w3.org/2000/svg" id="Layer_1" data-name="Layer 1" version="1.1" viewBox="0 0 256 256"><defs><linearGradient id="linear-gradient" x1="221.2" x2="34.2" y1="-21.5" y2="277.7" gradientUnits="userSpaceOnUse"><stop offset="0" stop-color="#1066b1"/><stop offset="1" stop-color="#7c3b97"/></linearGradient><style>.cls-2{stroke-width:0;fill:#fff}</style></defs><path d="M-.3.1h256v256H-.3z" style="stroke-width:0;fill:url(#linear-gradient)"/><path d="M219.4 61.4H72.6L69.7 46c-.7-3.9-4.2-6.8-8.2-6.8H31.9c-2.3 0-4.2 1.9-4.2 4.2v2.8c0 2.3 1.9 4.2 4.2 4.2h27.3l24.3 129.5c-3.6 3.9-5.8 9.2-5.8 14.9 0 12.3 9.9 22.2 22.2 22.2s22.2-9.9 22.2-22.2c0-3.9-1-7.7-3-11.1h50.4c-2 3.4-3 7.2-3 11.1 0 12.3 9.9 22.2 22.2 22.2s22.2-9.9 22.2-22.2-2.6-11.9-6.7-15.9c-.9-3.6-4.1-6.3-8.1-6.3H93.3l-4.2-22.2h115.1c3.9 0 7.4-2.8 8.2-6.6l15-72.2c1.1-5.2-2.9-10-8.2-10ZM111 194.8c0 6.1-5 11.1-11.1 11.1s-11.1-5-11.1-11.1 5-11.1 11.1-11.1 11.1 5 11.1 11.1Zm77.8 11.1c-6.1 0-11.1-5-11.1-11.1s5-11.1 11.1-11.1 11.1 5 11.1 11.1-5 11.1-11.1 11.1Zm13.3-66.7H87.2L74.7 72.5H216l-13.9 66.7Z" class="cls-2"/><path d="M113.3 119.8h-5.1V93.6h8l4.8 20.6 4.7-20.6h7.9v26.2h-5.1V97.9l-5 22h-5.3l-4.9-22v21.9ZM154 114.4h-9.7l-1.8 5.4h-5.7l9.4-26.2h6.2l9.3 26.2h-5.9l-1.7-5.4Zm-1.6-4.5-3.3-10.3-3.4 10.3h6.7ZM186 119.8h-6.7l-5-8.9-5.3 8.9h-6.4l8.4-13.4-8-12.9h6.5l4.7 8.5 4.8-8.5h6.3l-8 12.7 8.5 13.6Z" class="cls-2"/></svg>